<?xml version="1.0" encoding="utf-8"?>
<!-- Svg Vector Icons : http://www.onlinewebfonts.com/icon -->
<!DOCTYPE svg PUBLIC "-//W3C//DTD SVG 1.1//EN" "http://www.w3.org/Graphics/SVG/1.1/DTD/svg11.dtd">
<svg version="1.1" xmlns="http://www.w3.org/2000/svg" xmlns:xlink="http://www.w3.org/1999/xlink" x="0px" y="0px" viewBox="0 0 256 256" enable-background="new 0 0 256 256" xml:space="preserve">
<metadata> Svg Vector Icons : http://www.onlinewebfonts.com/icon </metadata>
<g><g><g><path fill="#000000" d="M174,10.8c-4,1-8.7,3.3-12.4,6c-1.6,1.3-30,29.3-63,62.4l-60,60.1l-2.3,4.8c-2.7,5.7-3,6.6-11.5,37.9c-3.6,13.4-8.1,29.5-10,35.8c-4.6,15.6-4.8,16.1-4.8,19.1c0.1,6.2,3.4,9.1,10.4,9.1c3.4,0,5.2-0.4,10.7-2.1c12.5-4,54-15.7,71.6-20.1c4.5-1.2,8.5-2.5,11.2-3.9c4.1-2.1,5.1-3,63.8-61.7c32.8-32.7,60.7-60.9,61.9-62.7c4.6-6.3,6.6-12.4,6.5-20c-0.1-6.4-1.5-11.5-5-18.6c-3.9-7.9-9.7-15.5-18.8-24.4c-13-12.9-23.4-19.7-33.8-21.9C184.2,9.8,177.9,9.8,174,10.8z M174.9,39.2c7.5,1.9,16.3,7.7,25.4,16.8c14.8,14.8,20.5,28,16.6,38.6c-1.1,2.9-2.8,4.7-46.2,48.1c-24.8,24.9-45.2,45.1-45.4,45.1c-0.2,0-0.5-1.3-0.6-3c-1.1-10.3-11.1-25.1-26-38.3c-10.6-9.4-21.3-15.1-28.3-15.1c-1.6,0,0.8-2.5,42.7-44.5c24.4-24.4,45.4-45.1,46.7-45.8C164.4,38.4,169.3,37.7,174.9,39.2z M67.7,146.4c7.5,1.9,14.6,6.6,23.7,15.5c15.2,14.7,21.4,27.8,18,38c-1.7,5.2,0,4.4-31.3,13.2c-15.5,4.3-28.3,7.7-28.4,7.4c-1-2.9-8.6-10.9-12.3-12.8c-1.1-0.6-2-1.1-2-1.2c0-0.1,3.4-12.9,7.6-28.5c8.4-31.4,7.6-29.3,12.5-31.3C58.6,145.4,63.6,145.3,67.7,146.4z"/></g></g></g>
</svg>